<svg width="67" height="51" viewBox="0 0 67 51" fill="none" xmlns="http://www.w3.org/2000/svg">
<path d="M33.5 11.1426C24.1195 11.1426 16.4883 18.8421 16.4883 28.3065C16.4883 37.7704 24.1195 45.4705 33.5 45.4705C42.8805 45.4705 50.5117 37.7704 50.5117 28.3065C50.5117 18.8421 42.8805 11.1426 33.5 11.1426ZM33.5 42.8299C25.5626 42.8299 19.1055 36.3145 19.1055 28.3065C19.1055 20.2986 25.5626 13.7832 33.5 13.7832C41.4369 13.7832 47.8945 20.2986 47.8945 28.3065C47.8945 36.3145 41.4369 42.8299 33.5 42.8299Z" fill="#FDFDFD"/>
<path d="M33.5 15.3672C26.4285 15.3672 20.6758 21.1714 20.6758 28.3062C20.6758 35.4404 26.4285 41.2451 33.5 41.2451C40.571 41.2451 46.3242 35.4404 46.3242 28.3062C46.3242 21.1714 40.5715 15.3672 33.5 15.3672ZM33.5 38.6045C27.8715 38.6045 23.293 33.9845 23.293 28.3062C23.293 22.6278 27.872 18.0078 33.5 18.0078C39.128 18.0078 43.707 22.6278 43.707 28.3062C43.707 33.9845 39.128 38.6045 33.5 38.6045Z" fill="#FDFDFD"/>
<path d="M63.0742 5.8613H47.7626C47.1549 2.85193 44.5111 0.580078 41.3516 0.580078H25.6484C22.4889 0.580078 19.8451 2.85193 19.2368 5.8613H16.4806V5.06912C16.4806 3.17634 14.9548 1.63632 13.0783 1.63632H9.41421C7.53822 1.63632 6.01186 3.17634 6.01186 5.06912V5.8613H3.92578C1.76098 5.8613 0 7.63804 0 9.82222V46.7908C0 48.975 1.76098 50.7517 3.92578 50.7517H49.9883C50.7111 50.7517 51.2969 50.1607 51.2969 49.4314C51.2969 48.7021 50.7111 48.1111 49.9883 48.1111H3.92578C3.20401 48.1111 2.61719 47.5185 2.61719 46.7908V9.82222C2.61719 9.09399 3.20401 8.50191 3.92578 8.50191H20.4141C21.1369 8.50191 21.7227 7.91087 21.7227 7.18161C21.7227 4.99743 23.4841 3.22069 25.6484 3.22069H41.3516C43.5159 3.22069 45.2773 4.99743 45.2773 7.18161C45.2773 7.91087 45.8631 8.50191 46.5859 8.50191H63.0742C63.796 8.50191 64.3828 9.09451 64.3828 9.82222V46.7908C64.3828 47.519 63.796 48.1111 63.0742 48.1111H59.013C58.2907 48.1111 57.7044 48.7021 57.7044 49.4314C57.7044 50.1607 58.2907 50.7517 59.013 50.7517H63.0742C65.239 50.7517 67 48.975 67 46.7908V9.82222C67 7.63804 65.239 5.8613 63.0742 5.8613ZM8.62956 5.06912C8.62956 4.6395 8.98891 4.27694 9.41472 4.27694H13.0788C13.5041 4.27694 13.8639 4.6395 13.8639 5.06912V5.8613H8.62956V5.06912Z" fill="#FDFDFD"/>
<path d="M55.254 48.1113H55.2188C54.4965 48.1113 53.9102 48.7024 53.9102 49.4316C53.9102 50.1609 54.4965 50.752 55.2188 50.752H55.254C55.9768 50.752 56.5626 50.1609 56.5626 49.4316C56.5626 48.7024 55.9768 48.1113 55.254 48.1113Z" fill="#FDFDFD"/>
<path d="M58.8867 18.0078C61.0515 18.0078 62.8125 16.2311 62.8125 14.0469C62.8125 11.8627 61.0515 10.0859 58.8867 10.0859H56.2695C54.1047 10.0859 52.3438 11.8627 52.3438 14.0469C52.3438 16.2311 54.1047 18.0078 56.2695 18.0078H58.8867ZM54.9609 14.0469C54.9609 13.3186 55.5478 12.7266 56.2695 12.7266H58.8867C59.6085 12.7266 60.1953 13.3186 60.1953 14.0469C60.1953 14.7751 59.6085 15.3672 58.8867 15.3672H56.2695C55.5478 15.3672 54.9609 14.7751 54.9609 14.0469Z" fill="#FDFDFD"/>
<path d="M5.4961 10.0859C4.7733 10.0859 4.1875 10.677 4.1875 11.4062C4.1875 12.1355 4.7733 12.7266 5.4961 12.7266H9.55734C10.2801 12.7266 10.8659 12.1355 10.8659 11.4062C10.8659 10.677 10.2801 10.0859 9.55734 10.0859H5.4961Z" fill="#FDFDFD"/>
<path d="M13.3164 10.0859C12.5936 10.0859 12.0078 10.677 12.0078 11.4062C12.0078 12.1355 12.5936 12.7266 13.3164 12.7266H13.3517C14.0745 12.7266 14.6603 12.1355 14.6603 11.4062C14.6603 10.677 14.0745 10.0859 13.3517 10.0859H13.3164Z" fill="#FDFDFD"/>
</svg>
