<svg width="79" height="50" viewBox="0 0 79 50" fill="none" xmlns="http://www.w3.org/2000/svg">
<path d="M78.6197 24.5417C71.7902 9.99693 56.3823 0.598633 39.3659 0.598633C22.3495 0.598633 6.94159 9.99693 0.112216 24.5417C-0.0374053 24.8605 -0.0374053 25.2306 0.112216 25.5494C6.94159 40.0942 22.3495 49.4923 39.3659 49.4923C45.7513 49.4923 51.8949 48.2131 57.6252 45.6901C58.2096 45.4328 58.4779 44.7433 58.2245 44.1501C57.9711 43.5569 57.2917 43.2843 56.7075 43.5417C51.2682 45.9363 45.4338 47.1507 39.3659 47.1507C23.4318 47.1507 9.00154 38.4931 2.43558 25.0455C9.00154 11.5978 23.4318 2.94028 39.3659 2.94028C55.3 2.94028 69.7303 11.5978 76.2962 25.0455C73.0261 31.7438 67.7635 37.3624 61.0461 41.3193C60.4951 41.6439 60.3077 42.3604 60.6272 42.9196C60.9469 43.4788 61.6524 43.6693 62.2035 43.3449C69.4925 39.0512 75.1691 32.8977 78.6196 25.5494C78.7692 25.2306 78.7692 24.8605 78.6197 24.5417Z" fill="#FDFDFD"/>
<path d="M25.19 13.9977C24.6612 13.6374 23.9446 13.7804 23.5897 14.3175C21.4891 17.4951 20.3789 21.2047 20.3789 25.0462C20.3789 35.6742 28.8959 44.3207 39.3648 44.3207C49.8337 44.3207 58.3507 35.674 58.3507 25.046C58.3507 14.418 49.8337 5.77148 39.3648 5.77148C34.7158 5.77148 30.2422 7.49495 26.7683 10.6247C26.2918 11.0538 26.2483 11.7938 26.6711 12.2774C27.0937 12.7613 27.8228 12.8055 28.2991 12.3761C31.3508 9.62726 35.2804 8.11314 39.3648 8.11314C48.5618 8.11314 56.0441 15.7092 56.0441 25.046C56.0441 34.3828 48.5618 41.9789 39.3648 41.9789C30.1678 41.9789 22.6855 34.3828 22.6855 25.046C22.6855 21.6712 23.6604 18.4125 25.5049 15.6224C25.86 15.0854 25.719 14.358 25.19 13.9977Z" fill="#FDFDFD"/>
<path d="M44.4612 16.1162C43.7355 16.1162 43.0585 16.3302 42.4866 16.698C41.4928 16.3138 40.4468 16.1162 39.3661 16.1162C34.5161 16.1162 30.5703 20.122 30.5703 25.0457C30.5703 29.9693 34.5161 33.9751 39.3661 33.9751C44.2161 33.9751 48.1619 29.9693 48.1619 25.0457C48.1619 23.9484 47.9672 22.8865 47.5888 21.8777C47.9512 21.2972 48.1619 20.6098 48.1619 19.8731C48.1619 17.8016 46.5017 16.1162 44.4612 16.1162ZM45.8553 19.8731C45.8553 20.6537 45.2299 21.2886 44.4612 21.2886C43.6923 21.2886 43.0669 20.6537 43.0669 19.8731C43.0669 19.0927 43.6923 18.4578 44.4612 18.4578C45.2299 18.4578 45.8553 19.0927 45.8553 19.8731ZM39.3661 31.6335C35.7878 31.6335 32.8769 28.6782 32.8769 25.0457C32.8769 21.4131 35.788 18.4578 39.3661 18.4578C39.9109 18.4578 40.4431 18.527 40.9595 18.6595C40.8309 19.0406 40.7602 19.4485 40.7602 19.8733C40.7602 21.9449 42.4205 23.6304 44.461 23.6304C44.8794 23.6304 45.2812 23.5586 45.6566 23.4281C45.787 23.9523 45.8553 24.4926 45.8553 25.0458C45.8553 28.6783 42.9444 31.6335 39.3661 31.6335Z" fill="#FDFDFD"/>
</svg>
