<svg width="41" height="29" viewBox="0 0 41 29" fill="none" xmlns="http://www.w3.org/2000/svg">
<path d="M39.5003 0H0.662016C0.296407 0 0 0.284918 0 0.636356V27.7875C0 28.139 0.296407 28.4239 0.662016 28.4239H39.5003C39.8659 28.4239 40.1623 28.139 40.1623 27.7875V0.636356C40.1623 0.284918 39.8659 0 39.5003 0ZM38.8383 27.1512H1.32403V1.27271H38.8383V27.1512Z" fill="#FDFDFD"/>
<path d="M4.19522 25.0286H35.972C36.3376 25.0286 36.634 24.7437 36.634 24.3922V4.02893C36.634 3.67749 36.3376 3.39258 35.972 3.39258H4.19522C3.82961 3.39258 3.5332 3.67749 3.5332 4.02893V7.42281C3.5332 7.77425 3.82961 8.05917 4.19522 8.05917C4.56083 8.05917 4.85724 7.77425 4.85724 7.42281V4.66528H35.31V23.7559H4.85724V9.96822C4.85724 9.61679 4.56083 9.33187 4.19522 9.33187C3.82961 9.33187 3.5332 9.61679 3.5332 9.96822V24.3922C3.5332 24.7437 3.82961 25.0286 4.19522 25.0286Z" fill="#FDFDFD"/>
<path d="M15.0402 11.2002C14.8584 11.2002 14.6847 11.272 14.5597 11.3988L6.36123 19.7139C6.10967 19.9689 6.12096 20.3717 6.3863 20.6135C6.51438 20.7302 6.67812 20.7881 6.84159 20.7881C7.01698 20.7881 7.19202 20.7214 7.32221 20.5894L15.0403 12.7617L22.1011 19.9229C22.2261 20.0497 22.3998 20.1215 22.5815 20.1215C22.7633 20.1215 22.937 20.0497 23.062 19.9229L28.0052 14.9094L32.8419 19.8149C33.0934 20.0699 33.5125 20.0808 33.7778 19.8389C34.0431 19.5972 34.0544 19.1944 33.8029 18.9393L28.4857 13.5465C28.3607 13.4197 28.187 13.3479 28.0053 13.3479C27.8235 13.3479 27.6498 13.4196 27.5248 13.5465L22.5816 18.56L15.5208 11.3988C15.3956 11.272 15.2219 11.2002 15.0402 11.2002Z" fill="#FDFDFD"/>
<path d="M25.8917 10.8175C25.8917 9.06303 24.4068 7.63574 22.5816 7.63574C20.7563 7.63574 19.2715 9.06303 19.2715 10.8175C19.2715 12.5719 20.7563 13.9992 22.5816 13.9992C24.4068 13.9992 25.8917 12.5719 25.8917 10.8175ZM20.5955 10.8175C20.5955 9.76479 21.4864 8.90844 22.5816 8.90844C23.6767 8.90844 24.5676 9.76479 24.5676 10.8175C24.5676 11.8702 23.6767 12.7265 22.5816 12.7265C21.4864 12.7265 20.5955 11.8702 20.5955 10.8175Z" fill="#FDFDFD"/>
</svg>
