<svg width="28" height="28" viewBox="0 0 28 28" fill="none" xmlns="http://www.w3.org/2000/svg">
<g opacity="0.9">
<rect width="28" height="28" transform="matrix(1 0 0 -1 0 28)" fill="#292929"/>
<path d="M19.25 28H8.75C3.91825 28 0 24.0817 0 19.25V8.75C0 3.91825 3.91825 0 8.75 0H19.25C24.0817 0 28 3.91825 28 8.75V19.25C28 24.0817 24.0817 28 19.25 28ZM25.375 8.75C25.375 5.3725 22.6275 2.625 19.25 2.625H8.75C5.3725 2.625 2.625 5.3725 2.625 8.75V19.25C2.625 22.6275 5.3725 25.375 8.75 25.375H19.25C22.6275 25.375 25.375 22.6275 25.375 19.25V8.75Z" fill="#FDFDFD"/>
<path d="M14 21C10.1342 21 7 17.8658 7 14C7 10.1343 10.1342 7 14 7C17.8657 7 21 10.1343 21 14C21 17.8658 17.8657 21 14 21ZM14 9.625C11.5885 9.625 9.625 11.5885 9.625 14C9.625 16.4133 11.5885 18.375 14 18.375C16.4115 18.375 18.375 16.4133 18.375 14C18.375 11.5885 16.4115 9.625 14 9.625Z" fill="#FDFDFD"/>
<path d="M21.5245 20.5915C22.0397 20.5915 22.4573 21.0091 22.4573 21.5243C22.4573 22.0394 22.0397 22.457 21.5245 22.457C21.0094 22.457 20.5918 22.0394 20.5918 21.5243C20.5918 21.0091 21.0094 20.5915 21.5245 20.5915Z" fill="#FDFDFD"/>
</g>
</svg>
