<svg width="29" height="33" viewBox="0 0 29 33" fill="none" xmlns="http://www.w3.org/2000/svg">
<path d="M12.8287 0.84C12.7353 1.78667 12.6887 2.64 12.6887 3.4C12.6887 4.06667 12.7087 4.61333 12.7487 5.04H12.2887C12.182 4.01333 12.0487 3.25333 11.8887 2.76C11.7287 2.25333 11.4487 1.88667 11.0487 1.66C10.6487 1.42 10.0353 1.3 9.20867 1.3H8.12867V12.68C8.12867 13.24 8.18201 13.6467 8.28867 13.9C8.39534 14.1533 8.58201 14.3267 8.84867 14.42C9.11534 14.5133 9.54867 14.5733 10.1487 14.6V15C9.45534 14.96 8.47534 14.94 7.20867 14.94C5.87534 14.94 4.88867 14.96 4.24867 15V14.6C4.84867 14.5733 5.28201 14.5133 5.54867 14.42C5.81534 14.3267 6.00201 14.1533 6.10867 13.9C6.21534 13.6467 6.26867 13.24 6.26867 12.68V1.3H5.18867C4.36201 1.3 3.74867 1.42 3.34867 1.66C2.94867 1.88667 2.66867 2.25333 2.50867 2.76C2.34867 3.25333 2.21534 4.01333 2.10867 5.04H1.64867C1.68867 4.61333 1.70867 4.06667 1.70867 3.4C1.70867 2.64 1.66201 1.78667 1.56867 0.84C2.67534 0.879999 4.55534 0.899999 7.20867 0.899999C9.84867 0.899999 11.722 0.879999 12.8287 0.84ZM22.3305 0.619999C22.9172 0.619999 23.3772 0.686666 23.7105 0.819999C24.0572 0.939999 24.4105 1.12 24.7705 1.36C25.0639 1.54667 25.2905 1.64 25.4505 1.64C25.5705 1.64 25.6639 1.57333 25.7305 1.44C25.7972 1.29333 25.8505 1.06667 25.8905 0.76H26.3505C26.2839 1.53333 26.2505 2.89333 26.2505 4.84H25.7905C25.7105 3.76 25.3972 2.85333 24.8505 2.12C24.3172 1.37333 23.5372 0.999999 22.5105 0.999999C21.7905 0.999999 21.2039 1.22 20.7505 1.66C20.2972 2.08667 20.0705 2.64 20.0705 3.32C20.0705 3.82667 20.1839 4.26667 20.4105 4.64C20.6505 5.01333 20.9505 5.33333 21.3105 5.6C21.6705 5.86667 22.1839 6.20667 22.8505 6.62L23.4305 6.98C24.2705 7.5 24.9305 7.96 25.4105 8.36C25.9039 8.74667 26.2972 9.19333 26.5905 9.7C26.8839 10.2067 27.0305 10.8 27.0305 11.48C27.0305 12.6933 26.6305 13.6333 25.8305 14.3C25.0305 14.9533 24.0172 15.28 22.7905 15.28C22.1505 15.28 21.6239 15.2133 21.2105 15.08C20.8105 14.9467 20.4239 14.7667 20.0505 14.54C19.7572 14.3533 19.5305 14.26 19.3705 14.26C19.2505 14.26 19.1572 14.3333 19.0905 14.48C19.0239 14.6133 18.9705 14.8333 18.9305 15.14H18.4705C18.5239 14.4067 18.5505 12.8067 18.5505 10.34H19.0105C19.1039 11.6867 19.4372 12.78 20.0105 13.62C20.5839 14.46 21.4639 14.88 22.6505 14.88C23.3705 14.88 23.9839 14.66 24.4905 14.22C24.9972 13.7667 25.2505 13.1 25.2505 12.22C25.2505 11.4733 24.9972 10.84 24.4905 10.32C23.9972 9.8 23.2105 9.21333 22.1305 8.56C21.3439 8.08 20.7039 7.65333 20.2105 7.28C19.7305 6.90667 19.3372 6.46 19.0305 5.94C18.7239 5.40667 18.5705 4.78667 18.5705 4.08C18.5705 2.96 18.9305 2.10667 19.6505 1.52C20.3705 0.919999 21.2639 0.619999 22.3305 0.619999ZM13.2129 31C12.9062 31.4533 12.5996 31.78 12.2929 31.98C11.9862 32.18 11.5796 32.28 11.0729 32.28C10.5262 32.28 10.0729 32.12 9.71289 31.8C9.36622 31.48 9.10622 30.92 8.93289 30.12L8.49289 28.12C8.33289 27.4267 8.17956 26.8933 8.03289 26.52C7.89956 26.1467 7.69289 25.8467 7.41289 25.62C7.13289 25.3933 6.73956 25.28 6.23289 25.28H4.33289V29.88C4.33289 30.3867 4.37289 30.7533 4.45289 30.98C4.53289 31.2067 4.67956 31.36 4.89289 31.44C5.11956 31.52 5.47289 31.5733 5.95289 31.6V32C5.33956 31.96 4.49289 31.94 3.41289 31.94C2.26622 31.94 1.41289 31.96 0.852891 32V31.6C1.33289 31.5733 1.67956 31.52 1.89289 31.44C2.11956 31.36 2.27289 31.2067 2.35289 30.98C2.43289 30.7533 2.47289 30.3867 2.47289 29.88V19.96C2.47289 19.4533 2.43289 19.0867 2.35289 18.86C2.27289 18.6333 2.11956 18.48 1.89289 18.4C1.67956 18.32 1.33289 18.2667 0.852891 18.24V17.84C1.41289 17.88 2.22622 17.9 3.29289 17.9L5.45289 17.88C5.70622 17.8667 5.99289 17.86 6.31289 17.86C7.85956 17.86 9.04622 18.1867 9.87289 18.84C10.7129 19.48 11.1329 20.3133 11.1329 21.34C11.1329 21.86 11.0062 22.3867 10.7529 22.92C10.5129 23.44 10.0996 23.9133 9.51289 24.34C8.93956 24.7533 8.18622 25.0333 7.25289 25.18L7.49289 25.22C8.37289 25.3667 9.01289 25.6333 9.41289 26.02C9.81289 26.4067 10.1062 27.02 10.2929 27.86L10.7929 29.9C10.9262 30.5133 11.0662 30.94 11.2129 31.18C11.3596 31.42 11.5596 31.54 11.8129 31.54C12.0396 31.54 12.2262 31.48 12.3729 31.36C12.5329 31.24 12.7129 31.0467 12.9129 30.78L13.2129 31ZM5.81289 18.24C5.39956 18.24 5.08622 18.2867 4.87289 18.38C4.67289 18.4733 4.53289 18.64 4.45289 18.88C4.37289 19.12 4.33289 19.48 4.33289 19.96V24.88H5.67289C6.99289 24.88 7.89956 24.5867 8.39289 24C8.88622 23.4133 9.13289 22.6 9.13289 21.56C9.13289 20.4667 8.87289 19.64 8.35289 19.08C7.83289 18.52 6.98622 18.24 5.81289 18.24ZM27.2016 30.38C27.4283 30.7133 27.675 30.98 27.9416 31.18C28.2216 31.3667 28.5616 31.5067 28.9616 31.6V32C28.3216 31.96 27.5216 31.94 26.5616 31.94C25.8416 31.94 25.155 31.96 24.5016 32V31.6C24.8216 31.5867 25.055 31.5467 25.2016 31.48C25.3483 31.4133 25.4216 31.3133 25.4216 31.18C25.4216 31.0467 25.355 30.8867 25.2216 30.7L22.3016 26.3C21.915 25.7133 21.5883 25.3333 21.3216 25.16C21.055 24.9733 20.6816 24.8667 20.2016 24.84V29.88C20.2016 30.3867 20.2416 30.7533 20.3216 30.98C20.4016 31.2067 20.5483 31.36 20.7616 31.44C20.9883 31.52 21.3416 31.5733 21.8216 31.6V32C21.2083 31.96 20.3616 31.94 19.2816 31.94C18.135 31.94 17.2816 31.96 16.7216 32V31.6C17.2016 31.5733 17.5483 31.52 17.7616 31.44C17.9883 31.36 18.1416 31.2067 18.2216 30.98C18.3016 30.7533 18.3416 30.3867 18.3416 29.88V19.96C18.3416 19.4533 18.3016 19.0867 18.2216 18.86C18.1416 18.6333 17.9883 18.48 17.7616 18.4C17.5483 18.32 17.2016 18.2667 16.7216 18.24V17.84C17.2816 17.88 18.135 17.9 19.2816 17.9C20.3483 17.9 21.195 17.88 21.8216 17.84V18.24C21.3416 18.2667 20.9883 18.32 20.7616 18.4C20.5483 18.48 20.4016 18.6333 20.3216 18.86C20.2416 19.0867 20.2016 19.4533 20.2016 19.96V24.44C21.175 24.4 21.935 24.0267 22.4816 23.32L24.4016 20.88C25.0816 20.04 25.4216 19.4 25.4216 18.96C25.4216 18.4933 25.0083 18.2533 24.1816 18.24V17.84C24.9416 17.88 25.7083 17.9 26.4816 17.9C27.215 17.9 27.7816 17.88 28.1816 17.84V18.24C27.7416 18.3067 27.3283 18.4533 26.9416 18.68C26.555 18.8933 26.1816 19.2333 25.8216 19.7L22.5616 23.88L27.2016 30.38Z" fill="#FDFDFD"/>
</svg>
