<svg  aria-hidden="true" style="position: absolute; width: 0; height: 0; overflow: hidden;" version="1.1" xmlns="http://www.w3.org/2000/svg" xmlns:xlink="http://www.w3.org/1999/xlink">
<defs>
<symbol id="icon-camera" viewBox="0 0 67 51" >
<path d="M33.5 11.1426C24.1195 11.1426 16.4883 18.8421 16.4883 28.3065C16.4883 37.7704 24.1195 45.4705 33.5 45.4705C42.8805 45.4705 50.5117 37.7704 50.5117 28.3065C50.5117 18.8421 42.8805 11.1426 33.5 11.1426ZM33.5 42.8299C25.5626 42.8299 19.1055 36.3145 19.1055 28.3065C19.1055 20.2986 25.5626 13.7832 33.5 13.7832C41.4369 13.7832 47.8945 20.2986 47.8945 28.3065C47.8945 36.3145 41.4369 42.8299 33.5 42.8299Z"/>
<path d="M33.5 15.3672C26.4285 15.3672 20.6758 21.1714 20.6758 28.3062C20.6758 35.4404 26.4285 41.2451 33.5 41.2451C40.571 41.2451 46.3242 35.4404 46.3242 28.3062C46.3242 21.1714 40.5715 15.3672 33.5 15.3672ZM33.5 38.6045C27.8715 38.6045 23.293 33.9845 23.293 28.3062C23.293 22.6278 27.872 18.0078 33.5 18.0078C39.128 18.0078 43.707 22.6278 43.707 28.3062C43.707 33.9845 39.128 38.6045 33.5 38.6045Z"/>
<path d="M63.0742 5.8613H47.7626C47.1549 2.85193 44.5111 0.580078 41.3516 0.580078H25.6484C22.4889 0.580078 19.8451 2.85193 19.2368 5.8613H16.4806V5.06912C16.4806 3.17634 14.9548 1.63632 13.0783 1.63632H9.41421C7.53822 1.63632 6.01186 3.17634 6.01186 5.06912V5.8613H3.92578C1.76098 5.8613 0 7.63804 0 9.82222V46.7908C0 48.975 1.76098 50.7517 3.92578 50.7517H49.9883C50.7111 50.7517 51.2969 50.1607 51.2969 49.4314C51.2969 48.7021 50.7111 48.1111 49.9883 48.1111H3.92578C3.20401 48.1111 2.61719 47.5185 2.61719 46.7908V9.82222C2.61719 9.09399 3.20401 8.50191 3.92578 8.50191H20.4141C21.1369 8.50191 21.7227 7.91087 21.7227 7.18161C21.7227 4.99743 23.4841 3.22069 25.6484 3.22069H41.3516C43.5159 3.22069 45.2773 4.99743 45.2773 7.18161C45.2773 7.91087 45.8631 8.50191 46.5859 8.50191H63.0742C63.796 8.50191 64.3828 9.09451 64.3828 9.82222V46.7908C64.3828 47.519 63.796 48.1111 63.0742 48.1111H59.013C58.2907 48.1111 57.7044 48.7021 57.7044 49.4314C57.7044 50.1607 58.2907 50.7517 59.013 50.7517H63.0742C65.239 50.7517 67 48.975 67 46.7908V9.82222C67 7.63804 65.239 5.8613 63.0742 5.8613ZM8.62956 5.06912C8.62956 4.6395 8.98891 4.27694 9.41472 4.27694H13.0788C13.5041 4.27694 13.8639 4.6395 13.8639 5.06912V5.8613H8.62956V5.06912Z"/>
<path d="M55.254 48.1113H55.2188C54.4965 48.1113 53.9102 48.7024 53.9102 49.4316C53.9102 50.1609 54.4965 50.752 55.2188 50.752H55.254C55.9768 50.752 56.5626 50.1609 56.5626 49.4316C56.5626 48.7024 55.9768 48.1113 55.254 48.1113Z"/>
<path d="M58.8867 18.0078C61.0515 18.0078 62.8125 16.2311 62.8125 14.0469C62.8125 11.8627 61.0515 10.0859 58.8867 10.0859H56.2695C54.1047 10.0859 52.3438 11.8627 52.3438 14.0469C52.3438 16.2311 54.1047 18.0078 56.2695 18.0078H58.8867ZM54.9609 14.0469C54.9609 13.3186 55.5478 12.7266 56.2695 12.7266H58.8867C59.6085 12.7266 60.1953 13.3186 60.1953 14.0469C60.1953 14.7751 59.6085 15.3672 58.8867 15.3672H56.2695C55.5478 15.3672 54.9609 14.7751 54.9609 14.0469Z"/>
<path d="M5.4961 10.0859C4.7733 10.0859 4.1875 10.677 4.1875 11.4062C4.1875 12.1355 4.7733 12.7266 5.4961 12.7266H9.55734C10.2801 12.7266 10.8659 12.1355 10.8659 11.4062C10.8659 10.677 10.2801 10.0859 9.55734 10.0859H5.4961Z"/>
<path d="M13.3164 10.0859C12.5936 10.0859 12.0078 10.677 12.0078 11.4062C12.0078 12.1355 12.5936 12.7266 13.3164 12.7266H13.3517C14.0745 12.7266 14.6603 12.1355 14.6603 11.4062C14.6603 10.677 14.0745 10.0859 13.3517 10.0859H13.3164Z"/>
</symbol>

<symbol id="icon-eye" viewBox="0 0 79 50" >
<path d="M78.6197 24.5417C71.7902 9.99693 56.3823 0.598633 39.3659 0.598633C22.3495 0.598633 6.94159 9.99693 0.112216 24.5417C-0.0374053 24.8605 -0.0374053 25.2306 0.112216 25.5494C6.94159 40.0942 22.3495 49.4923 39.3659 49.4923C45.7513 49.4923 51.8949 48.2131 57.6252 45.6901C58.2096 45.4328 58.4779 44.7433 58.2245 44.1501C57.9711 43.5569 57.2917 43.2843 56.7075 43.5417C51.2682 45.9363 45.4338 47.1507 39.3659 47.1507C23.4318 47.1507 9.00154 38.4931 2.43558 25.0455C9.00154 11.5978 23.4318 2.94028 39.3659 2.94028C55.3 2.94028 69.7303 11.5978 76.2962 25.0455C73.0261 31.7438 67.7635 37.3624 61.0461 41.3193C60.4951 41.6439 60.3077 42.3604 60.6272 42.9196C60.9469 43.4788 61.6524 43.6693 62.2035 43.3449C69.4925 39.0512 75.1691 32.8977 78.6196 25.5494C78.7692 25.2306 78.7692 24.8605 78.6197 24.5417Z"/>
<path d="M25.19 13.9977C24.6612 13.6374 23.9446 13.7804 23.5897 14.3175C21.4891 17.4951 20.3789 21.2047 20.3789 25.0462C20.3789 35.6742 28.8959 44.3207 39.3648 44.3207C49.8337 44.3207 58.3507 35.674 58.3507 25.046C58.3507 14.418 49.8337 5.77148 39.3648 5.77148C34.7158 5.77148 30.2422 7.49495 26.7683 10.6247C26.2918 11.0538 26.2483 11.7938 26.6711 12.2774C27.0937 12.7613 27.8228 12.8055 28.2991 12.3761C31.3508 9.62726 35.2804 8.11314 39.3648 8.11314C48.5618 8.11314 56.0441 15.7092 56.0441 25.046C56.0441 34.3828 48.5618 41.9789 39.3648 41.9789C30.1678 41.9789 22.6855 34.3828 22.6855 25.046C22.6855 21.6712 23.6604 18.4125 25.5049 15.6224C25.86 15.0854 25.719 14.358 25.19 13.9977Z"/>
<path d="M44.4612 16.1162C43.7355 16.1162 43.0585 16.3302 42.4866 16.698C41.4928 16.3138 40.4468 16.1162 39.3661 16.1162C34.5161 16.1162 30.5703 20.122 30.5703 25.0457C30.5703 29.9693 34.5161 33.9751 39.3661 33.9751C44.2161 33.9751 48.1619 29.9693 48.1619 25.0457C48.1619 23.9484 47.9672 22.8865 47.5888 21.8777C47.9512 21.2972 48.1619 20.6098 48.1619 19.8731C48.1619 17.8016 46.5017 16.1162 44.4612 16.1162ZM45.8553 19.8731C45.8553 20.6537 45.2299 21.2886 44.4612 21.2886C43.6923 21.2886 43.0669 20.6537 43.0669 19.8731C43.0669 19.0927 43.6923 18.4578 44.4612 18.4578C45.2299 18.4578 45.8553 19.0927 45.8553 19.8731ZM39.3661 31.6335C35.7878 31.6335 32.8769 28.6782 32.8769 25.0457C32.8769 21.4131 35.788 18.4578 39.3661 18.4578C39.9109 18.4578 40.4431 18.527 40.9595 18.6595C40.8309 19.0406 40.7602 19.4485 40.7602 19.8733C40.7602 21.9449 42.4205 23.6304 44.461 23.6304C44.8794 23.6304 45.2812 23.5586 45.6566 23.4281C45.787 23.9523 45.8553 24.4926 45.8553 25.0458C45.8553 28.6783 42.9444 31.6335 39.3661 31.6335Z"/>
</symbol>

<symbol id="icon-frame" viewBox="0 0 41 29">
<path d="M39.5003 0H0.662016C0.296407 0 0 0.284918 0 0.636356V27.7875C0 28.139 0.296407 28.4239 0.662016 28.4239H39.5003C39.8659 28.4239 40.1623 28.139 40.1623 27.7875V0.636356C40.1623 0.284918 39.8659 0 39.5003 0ZM38.8383 27.1512H1.32403V1.27271H38.8383V27.1512Z"/>
<path d="M4.19522 25.0286H35.972C36.3376 25.0286 36.634 24.7437 36.634 24.3922V4.02893C36.634 3.67749 36.3376 3.39258 35.972 3.39258H4.19522C3.82961 3.39258 3.5332 3.67749 3.5332 4.02893V7.42281C3.5332 7.77425 3.82961 8.05917 4.19522 8.05917C4.56083 8.05917 4.85724 7.77425 4.85724 7.42281V4.66528H35.31V23.7559H4.85724V9.96822C4.85724 9.61679 4.56083 9.33187 4.19522 9.33187C3.82961 9.33187 3.5332 9.61679 3.5332 9.96822V24.3922C3.5332 24.7437 3.82961 25.0286 4.19522 25.0286Z"/>
<path d="M15.0402 11.2002C14.8584 11.2002 14.6847 11.272 14.5597 11.3988L6.36123 19.7139C6.10967 19.9689 6.12096 20.3717 6.3863 20.6135C6.51438 20.7302 6.67812 20.7881 6.84159 20.7881C7.01698 20.7881 7.19202 20.7214 7.32221 20.5894L15.0403 12.7617L22.1011 19.9229C22.2261 20.0497 22.3998 20.1215 22.5815 20.1215C22.7633 20.1215 22.937 20.0497 23.062 19.9229L28.0052 14.9094L32.8419 19.8149C33.0934 20.0699 33.5125 20.0808 33.7778 19.8389C34.0431 19.5972 34.0544 19.1944 33.8029 18.9393L28.4857 13.5465C28.3607 13.4197 28.187 13.3479 28.0053 13.3479C27.8235 13.3479 27.6498 13.4196 27.5248 13.5465L22.5816 18.56L15.5208 11.3988C15.3956 11.272 15.2219 11.2002 15.0402 11.2002Z"/>
<path d="M25.8917 10.8175C25.8917 9.06303 24.4068 7.63574 22.5816 7.63574C20.7563 7.63574 19.2715 9.06303 19.2715 10.8175C19.2715 12.5719 20.7563 13.9992 22.5816 13.9992C24.4068 13.9992 25.8917 12.5719 25.8917 10.8175ZM20.5955 10.8175C20.5955 9.76479 21.4864 8.90844 22.5816 8.90844C23.6767 8.90844 24.5676 9.76479 24.5676 10.8175C24.5676 11.8702 23.6767 12.7265 22.5816 12.7265C21.4864 12.7265 20.5955 11.8702 20.5955 10.8175Z"/>
</symbol>

<symbol id="icon-insta" viewBox="0 0 28 28">
<path d="M19.25 28H8.75C3.91825 28 0 24.0817 0 19.25V8.75C0 3.91825 3.91825 0 8.75 0H19.25C24.0817 0 28 3.91825 28 8.75V19.25C28 24.0817 24.0817 28 19.25 28ZM25.375 8.75C25.375 5.3725 22.6275 2.625 19.25 2.625H8.75C5.3725 2.625 2.625 5.3725 2.625 8.75V19.25C2.625 22.6275 5.3725 25.375 8.75 25.375H19.25C22.6275 25.375 25.375 22.6275 25.375 19.25V8.75Z"/>
<path d="M14 21C10.1342 21 7 17.8658 7 14C7 10.1343 10.1342 7 14 7C17.8657 7 21 10.1343 21 14C21 17.8658 17.8657 21 14 21ZM14 9.625C11.5885 9.625 9.625 11.5885 9.625 14C9.625 16.4133 11.5885 18.375 14 18.375C16.4115 18.375 18.375 16.4133 18.375 14C18.375 11.5885 16.4115 9.625 14 9.625Z"/>
<path d="M21.5245 20.5915C22.0397 20.5915 22.4573 21.0091 22.4573 21.5243C22.4573 22.0394 22.0397 22.457 21.5245 22.457C21.0094 22.457 20.5918 22.0394 20.5918 21.5243C20.5918 21.0091 21.0094 20.5915 21.5245 20.5915Z"/>
</symbol>

<symbol id="icon-arrow-left" viewBox="0 0 26 8" >
<path d="M0.146445 3.64645C-0.0488155 3.84171 -0.0488155 4.15829 0.146445 4.35355L3.32843 7.53553C3.52369 7.7308 3.84027 7.7308 4.03553 7.53553C4.2308 7.34027 4.2308 7.02369 4.03553 6.82843L1.20711 4L4.03553 1.17157C4.2308 0.976311 4.2308 0.659729 4.03553 0.464467C3.84027 0.269204 3.52369 0.269204 3.32843 0.464467L0.146445 3.64645ZM25.5 3.5L0.499999 3.5V4.5L25.5 4.5V3.5Z"/>
</symbol>

<symbol id="icon-arrow-right" viewBox="0 0 26 8" >
<path d="M25.3536 4.35355C25.5488 4.15829 25.5488 3.84171 25.3536 3.64645L22.1716 0.464466C21.9763 0.269204 21.6597 0.269204 21.4645 0.464466C21.2692 0.659728 21.2692 0.976311 21.4645 1.17157L24.2929 4L21.4645 6.82843C21.2692 7.02369 21.2692 7.34027 21.4645 7.53553C21.6597 7.7308 21.9763 7.7308 22.1716 7.53553L25.3536 4.35355ZM0 4.5H25V3.5H0V4.5Z"/>
</symbol>

<symbol id="icon-facebook" viewBox="0 0 11 21" >
<path d="M6.5625 7.11754V4.52934C6.5625 3.815 7.1505 3.23524 7.875 3.23524H9.1875V0H6.5625C4.38769 0 2.625 1.73797 2.625 3.88229V7.11754H0V10.3528H2.625V20.7056H6.5625V10.3528H9.1875L10.5 7.11754H6.5625Z"/>
</symbol>

<symbol id="icon-logo" viewBox="0 0 29 33" >
<path d="M12.8287 0.84C12.7353 1.78667 12.6887 2.64 12.6887 3.4C12.6887 4.06667 12.7087 4.61333 12.7487 5.04H12.2887C12.182 4.01333 12.0487 3.25333 11.8887 2.76C11.7287 2.25333 11.4487 1.88667 11.0487 1.66C10.6487 1.42 10.0353 1.3 9.20867 1.3H8.12867V12.68C8.12867 13.24 8.18201 13.6467 8.28867 13.9C8.39534 14.1533 8.58201 14.3267 8.84867 14.42C9.11534 14.5133 9.54867 14.5733 10.1487 14.6V15C9.45534 14.96 8.47534 14.94 7.20867 14.94C5.87534 14.94 4.88867 14.96 4.24867 15V14.6C4.84867 14.5733 5.28201 14.5133 5.54867 14.42C5.81534 14.3267 6.00201 14.1533 6.10867 13.9C6.21534 13.6467 6.26867 13.24 6.26867 12.68V1.3H5.18867C4.36201 1.3 3.74867 1.42 3.34867 1.66C2.94867 1.88667 2.66867 2.25333 2.50867 2.76C2.34867 3.25333 2.21534 4.01333 2.10867 5.04H1.64867C1.68867 4.61333 1.70867 4.06667 1.70867 3.4C1.70867 2.64 1.66201 1.78667 1.56867 0.84C2.67534 0.879999 4.55534 0.899999 7.20867 0.899999C9.84867 0.899999 11.722 0.879999 12.8287 0.84ZM22.3305 0.619999C22.9172 0.619999 23.3772 0.686666 23.7105 0.819999C24.0572 0.939999 24.4105 1.12 24.7705 1.36C25.0639 1.54667 25.2905 1.64 25.4505 1.64C25.5705 1.64 25.6639 1.57333 25.7305 1.44C25.7972 1.29333 25.8505 1.06667 25.8905 0.76H26.3505C26.2839 1.53333 26.2505 2.89333 26.2505 4.84H25.7905C25.7105 3.76 25.3972 2.85333 24.8505 2.12C24.3172 1.37333 23.5372 0.999999 22.5105 0.999999C21.7905 0.999999 21.2039 1.22 20.7505 1.66C20.2972 2.08667 20.0705 2.64 20.0705 3.32C20.0705 3.82667 20.1839 4.26667 20.4105 4.64C20.6505 5.01333 20.9505 5.33333 21.3105 5.6C21.6705 5.86667 22.1839 6.20667 22.8505 6.62L23.4305 6.98C24.2705 7.5 24.9305 7.96 25.4105 8.36C25.9039 8.74667 26.2972 9.19333 26.5905 9.7C26.8839 10.2067 27.0305 10.8 27.0305 11.48C27.0305 12.6933 26.6305 13.6333 25.8305 14.3C25.0305 14.9533 24.0172 15.28 22.7905 15.28C22.1505 15.28 21.6239 15.2133 21.2105 15.08C20.8105 14.9467 20.4239 14.7667 20.0505 14.54C19.7572 14.3533 19.5305 14.26 19.3705 14.26C19.2505 14.26 19.1572 14.3333 19.0905 14.48C19.0239 14.6133 18.9705 14.8333 18.9305 15.14H18.4705C18.5239 14.4067 18.5505 12.8067 18.5505 10.34H19.0105C19.1039 11.6867 19.4372 12.78 20.0105 13.62C20.5839 14.46 21.4639 14.88 22.6505 14.88C23.3705 14.88 23.9839 14.66 24.4905 14.22C24.9972 13.7667 25.2505 13.1 25.2505 12.22C25.2505 11.4733 24.9972 10.84 24.4905 10.32C23.9972 9.8 23.2105 9.21333 22.1305 8.56C21.3439 8.08 20.7039 7.65333 20.2105 7.28C19.7305 6.90667 19.3372 6.46 19.0305 5.94C18.7239 5.40667 18.5705 4.78667 18.5705 4.08C18.5705 2.96 18.9305 2.10667 19.6505 1.52C20.3705 0.919999 21.2639 0.619999 22.3305 0.619999ZM13.2129 31C12.9062 31.4533 12.5996 31.78 12.2929 31.98C11.9862 32.18 11.5796 32.28 11.0729 32.28C10.5262 32.28 10.0729 32.12 9.71289 31.8C9.36622 31.48 9.10622 30.92 8.93289 30.12L8.49289 28.12C8.33289 27.4267 8.17956 26.8933 8.03289 26.52C7.89956 26.1467 7.69289 25.8467 7.41289 25.62C7.13289 25.3933 6.73956 25.28 6.23289 25.28H4.33289V29.88C4.33289 30.3867 4.37289 30.7533 4.45289 30.98C4.53289 31.2067 4.67956 31.36 4.89289 31.44C5.11956 31.52 5.47289 31.5733 5.95289 31.6V32C5.33956 31.96 4.49289 31.94 3.41289 31.94C2.26622 31.94 1.41289 31.96 0.852891 32V31.6C1.33289 31.5733 1.67956 31.52 1.89289 31.44C2.11956 31.36 2.27289 31.2067 2.35289 30.98C2.43289 30.7533 2.47289 30.3867 2.47289 29.88V19.96C2.47289 19.4533 2.43289 19.0867 2.35289 18.86C2.27289 18.6333 2.11956 18.48 1.89289 18.4C1.67956 18.32 1.33289 18.2667 0.852891 18.24V17.84C1.41289 17.88 2.22622 17.9 3.29289 17.9L5.45289 17.88C5.70622 17.8667 5.99289 17.86 6.31289 17.86C7.85956 17.86 9.04622 18.1867 9.87289 18.84C10.7129 19.48 11.1329 20.3133 11.1329 21.34C11.1329 21.86 11.0062 22.3867 10.7529 22.92C10.5129 23.44 10.0996 23.9133 9.51289 24.34C8.93956 24.7533 8.18622 25.0333 7.25289 25.18L7.49289 25.22C8.37289 25.3667 9.01289 25.6333 9.41289 26.02C9.81289 26.4067 10.1062 27.02 10.2929 27.86L10.7929 29.9C10.9262 30.5133 11.0662 30.94 11.2129 31.18C11.3596 31.42 11.5596 31.54 11.8129 31.54C12.0396 31.54 12.2262 31.48 12.3729 31.36C12.5329 31.24 12.7129 31.0467 12.9129 30.78L13.2129 31ZM5.81289 18.24C5.39956 18.24 5.08622 18.2867 4.87289 18.38C4.67289 18.4733 4.53289 18.64 4.45289 18.88C4.37289 19.12 4.33289 19.48 4.33289 19.96V24.88H5.67289C6.99289 24.88 7.89956 24.5867 8.39289 24C8.88622 23.4133 9.13289 22.6 9.13289 21.56C9.13289 20.4667 8.87289 19.64 8.35289 19.08C7.83289 18.52 6.98622 18.24 5.81289 18.24ZM27.2016 30.38C27.4283 30.7133 27.675 30.98 27.9416 31.18C28.2216 31.3667 28.5616 31.5067 28.9616 31.6V32C28.3216 31.96 27.5216 31.94 26.5616 31.94C25.8416 31.94 25.155 31.96 24.5016 32V31.6C24.8216 31.5867 25.055 31.5467 25.2016 31.48C25.3483 31.4133 25.4216 31.3133 25.4216 31.18C25.4216 31.0467 25.355 30.8867 25.2216 30.7L22.3016 26.3C21.915 25.7133 21.5883 25.3333 21.3216 25.16C21.055 24.9733 20.6816 24.8667 20.2016 24.84V29.88C20.2016 30.3867 20.2416 30.7533 20.3216 30.98C20.4016 31.2067 20.5483 31.36 20.7616 31.44C20.9883 31.52 21.3416 31.5733 21.8216 31.6V32C21.2083 31.96 20.3616 31.94 19.2816 31.94C18.135 31.94 17.2816 31.96 16.7216 32V31.6C17.2016 31.5733 17.5483 31.52 17.7616 31.44C17.9883 31.36 18.1416 31.2067 18.2216 30.98C18.3016 30.7533 18.3416 30.3867 18.3416 29.88V19.96C18.3416 19.4533 18.3016 19.0867 18.2216 18.86C18.1416 18.6333 17.9883 18.48 17.7616 18.4C17.5483 18.32 17.2016 18.2667 16.7216 18.24V17.84C17.2816 17.88 18.135 17.9 19.2816 17.9C20.3483 17.9 21.195 17.88 21.8216 17.84V18.24C21.3416 18.2667 20.9883 18.32 20.7616 18.4C20.5483 18.48 20.4016 18.6333 20.3216 18.86C20.2416 19.0867 20.2016 19.4533 20.2016 19.96V24.44C21.175 24.4 21.935 24.0267 22.4816 23.32L24.4016 20.88C25.0816 20.04 25.4216 19.4 25.4216 18.96C25.4216 18.4933 25.0083 18.2533 24.1816 18.24V17.84C24.9416 17.88 25.7083 17.9 26.4816 17.9C27.215 17.9 27.7816 17.88 28.1816 17.84V18.24C27.7416 18.3067 27.3283 18.4533 26.9416 18.68C26.555 18.8933 26.1816 19.2333 25.8216 19.7L22.5616 23.88L27.2016 30.38Z"/>
</symbol>

<symbol id="icon-ellipse" viewBox="0 0 6 5" >
<circle cx="2.98025" cy="2.30251" r="2.30251" fill="white"/>
</symbol>

<symbol id="icon-arrow-down" viewBox="0 0 25 16" >
<path d="M0.999998 1L12.5 15L24 1" stroke="#EEEEEE"/>
</symbol>

</defs>
</svg>
